<svg id="Layer_1" data-name="Layer 1" xmlns="http://www.w3.org/2000/svg" viewBox="0 0 20.3 20.3"><defs><style>.cls-1{fill:#fff;}.cls-1,.cls-2{stroke:#f22929;stroke-miterlimit:10;stroke-width:0.25px;}.cls-2{fill:none;}.cls-3{fill:#f22929;}</style></defs><title>jpgbucho</title><rect class="cls-1" x="0.1" y="0.1" width="20" height="20"/><rect class="cls-2" x="0.1" y="0.1" width="20" height="20"/><path class="cls-3" d="M10.6,3.6l3.2-.2a4.9,4.9,0,0,1,3.5,1,3.5,3.5,0,0,1,1.1,2.7,3.8,3.8,0,0,1-.9,2.7,5.5,5.5,0,0,1-3.9,1.4H12.2v5.1H10.6Zm1.6,6.2h1.4c2,0,3.2-1,3.2-2.7s-1.2-2.5-3-2.5H12.2Z" transform="translate(0.1 0.1)"/><path d="M2.1,16.2V3.5H3.9L8,9.9a35.5,35.5,0,0,1,2.3,4.2h0a42.7,42.7,0,0,1-.2-5.2V3.5h1.6V16.2H10L5.9,9.7A43.6,43.6,0,0,1,3.6,5.5H3.5c.1,1.6.1,3.1.1,5.3v5.4Z" transform="translate(0.1 0.1)"/></svg>